<?xml version="1.0" encoding="utf-8"?>
<!-- Generator: Adobe Illustrator 26.5.0, SVG Export Plug-In . SVG Version: 6.00 Build 0)  -->
<svg version="1.1" id="Ebene_1" xmlns="http://www.w3.org/2000/svg" xmlns:xlink="http://www.w3.org/1999/xlink" x="0px" y="0px"
	 viewBox="0 0 595.3 254" style="enable-background:new 0 0 595.3 254;" xml:space="preserve">
<style type="text/css">
	.st0{fill:#E8BD32;}
</style>
<g>
	<g>
		<path class="st0" d="M170.9,157c0,4.9-3.3,8.2-10,9.8c-0.4,0-0.6-0.3-0.6-0.8c0-0.5,0.4-1.1,1.3-1.7c2.5-1.9,3.8-4,3.8-6.2
			c0-4.4-3.5-7.6-10.6-9.6c-9.3,11.5-22.2,20.9-38.8,28.5c-16.5,7.5-31.2,11.3-44.1,11.3s-19.3-2.6-19.3-7.9
			c0-4.4,4.4-9.7,13.1-15.8c8.7-6.1,20-11.4,33.8-16c13.8-4.6,26.8-6.9,39-6.9c6,0,11.2,0.4,15.5,1.3c3.9-6.9,5.9-14.2,5.9-21.7
			c0-4.4-2-8.1-5.9-11c-3.9-3-9.1-4.4-15.7-4.4c-6.5,0-12.8,1.3-18.7,4c-1.3,0.9-2.3,1.3-3,1.3c-1.4,0-2.1-0.3-2.1-1
			c0-0.7,0.9-1.5,2.8-2.5c2.8-0.9,8.1-4.3,15.9-10.2c7.9-5.9,15.5-13.1,23-21.6c7.5-8.5,11.2-15.6,11.2-21.4
			c0-9.4-10.2-14.2-30.6-14.2c-14.3,0-29.6,2.9-45.8,8.8c-16.2,5.9-29.8,13.5-40.9,22.8c-11.1,9.4-16.6,18.5-16.6,27.5
			c0,4.8,3,7.2,8.9,7.2c8.4,0,16.7-2.1,24.9-6.3c8.2-4.2,18.9-11.9,32.1-22.9c1.6-1.9,2.8-2.8,3.4-2.8c1.4,0,2.1,0.4,2.1,1.3
			c0,0.3-0.4,1.1-1.3,2.6c-3.3,3.3-7.9,7.2-13.8,11.9c-5.9,4.7-11.4,8.6-16.4,11.7c-5,3.1-10.7,6-17.1,8.5
			c-6.4,2.5-12.1,3.8-17.3,3.8c-8.9,0-13.4-4-13.4-11.9c0-10.3,6.7-20.9,20.2-31.8c13.5-10.9,29.3-19.7,47.5-26.4
			c18.2-6.7,34.4-10.1,48.8-10.1c22.8,0,34.2,5.6,34.2,16.8c0,8.2-5.4,17.8-16.3,29c-10.9,11.1-20.7,18.8-29.3,22.9
			c3.9-0.8,7.5-1.1,10.9-1.1c7.9,0,14,1.5,18.3,4.5c4.3,3,6.4,7.1,6.4,12.3c0,8.8-2.8,17.4-8.5,25.9
			C166.6,146.7,170.9,151,170.9,157z M136.6,146.3c-9.6,0-20.4,2-32.5,6c-12.1,4-22.2,8.6-30.3,13.8c-8.1,5.2-12.2,9.3-12.2,12.6
			c0,3.2,3.9,4.8,11.6,4.8c7.7,0,16.2-1.2,25.5-3.7c9.2-2.5,18.9-6.5,29.1-12.3c10.1-5.7,17.9-12.4,23.3-19.9
			C146.3,146.7,141.5,146.3,136.6,146.3z M138.6,52.3c0,0.4-7.3,13.2-22,38.5c-14.7,25.3-25.4,43.7-32.4,55.3
			c-0.8,1.6-2.1,2.9-4.2,3.8c-2,0.9-3.6,1.3-4.6,1.3c-1.1,0-1.6-0.3-1.6-0.8s4.7-8.7,14-24.3c9.3-15.7,18.6-31.2,27.8-46.7
			c9.2-15.5,13.7-23.3,13.5-23.4c0.8-1.3,2-2.2,3.8-2.8l4.7-1.5L138.6,52.3z"/>
		<path class="st0" d="M191.7,140.2c0.6-1,1.5-1.5,2.6-1.5c1.1,0,2.3,0.6,3.4,1.7c0,0.5-0.8,1.6-2.5,3.4c-1.6,1.8-4.4,5.7-8.3,11.8
			c-3.9,6.1-5.9,10.2-5.9,12.2c0,1.3,0.9,2,2.8,2.3c2.5,0,6.4-1.2,11.7-3.7c5.3-2.5,9.9-4.9,14-7.5l6-3.8c0.1,0.3,0.2,0.8,0.2,1.5
			s-0.6,1.4-1.7,1.9c-17,11.6-28.8,17.4-35.5,17.4c-3.3,0-4.9-1.6-4.9-4.9s1.8-7.8,5.4-13.7C182.7,151.5,186.9,145.8,191.7,140.2z
			 M209.4,115.3c1.9,0,2.8,0.9,2.8,2.8c0,1.9-0.9,3.8-2.6,5.8c-1.8,2-3.7,2.9-5.9,2.9c-1.8,0-2.6-1.2-2.6-3.7c0-2.5,1-4.4,3-5.8
			C206.1,116,207.9,115.3,209.4,115.3z"/>
		<path class="st0" d="M212.4,160.2c-0.5,0.3-1,0.4-1.4,0.4s-0.7-0.3-0.7-0.8c0-0.5,0.2-0.9,0.6-1.3c5.2-2.9,10.8-7.6,17-14.2
			c-5.7-1.8-8.5-4.2-8.5-7.5c0-3.2,2.1-6.8,6.4-10.8c4.3-4,8.3-5.9,12.1-5.9c2.5,0,3.8,1.5,3.8,4.5c0,4.7-2.3,9.6-7,14.9
			c6,1,9.1,2.5,9.1,4.3c0,2.5-1.1,4.4-3.3,5.8c-2.2,1.3-4.8,3.7-7.6,7.1c-2.9,3.4-4.3,6.8-4.3,10.2c0,0.8,0.3,1.4,0.8,2.1
			c0.5,0.6,1.6,0.9,3.2,0.9c1.6,0,5.1-1.2,10.4-3.7c5.3-2.5,9.9-4.9,14-7.5l6-3.8c0.1,0.3,0.2,0.8,0.2,1.5s-0.6,1.4-1.7,1.9
			c-17,11.6-28.8,17.4-35.5,17.4c-3.3,0-4.9-1.6-4.9-4.9c0-2.6,0.9-5.4,2.7-8.3c1.8-2.9,3.8-5.3,6-7.2c2.2-1.9,4.2-3.7,6-5.4
			c1.8-1.7,2.7-2.8,2.7-3.3c0-0.5-0.8-0.8-2.4-0.9c-1.6-0.1-3.6-0.4-6.1-0.9C223.1,152.4,217.2,157.5,212.4,160.2z M224.1,134
			c0,2.5,2.8,4.3,8.3,5.3c3.3-4,4.9-7.5,4.9-10.5c0-3-0.9-4.4-2.8-4.4c-1.9,0-4.1,1.1-6.6,3.3C225.4,129.9,224.1,132,224.1,134z"/>
		<path class="st0" d="M291.1,155.1c-0.9,3.4-1.3,7-1.3,10.9c0,3.9,1.6,5.9,4.9,5.9c0.9,0,2.4-0.5,4.4-1.4c2.1-0.9,3.3-1.4,3.6-1.4
			c0.3,0,0.5,0.1,0.5,0.4c0,1.5-1.3,3.1-4,4.7c-2.6,1.6-5.3,2.5-7.9,2.5c-5.3,0-7.9-3.5-7.9-10.6c0-1.6,0.1-2.9,0.2-3.8
			c-10.1,8.8-17.8,13.2-23.1,13.2s-8-1.8-8-5.5c0-5.4,4.6-12.2,13.9-20.3c9.2-8.1,18-12.7,26.3-13.9c7.2-14.7,16-28.5,26.5-41.3
			c10.5-12.8,18.6-19.3,24.3-19.3c1,0,1.8,0.5,2.5,1.6c0.6,1.1,0.9,2.1,0.9,3.1c0,4.2-6.1,14.6-18.4,31.3
			C316.1,128.1,303.7,142.7,291.1,155.1z M261.5,168.5c0,1.9,1.1,2.8,3.2,2.8c3.4,0,10-4.7,19.8-14.2c1.6-5.8,3.6-11.1,5.9-16
			c-6.2,1.5-12.5,5.5-19.1,12.1C264.8,159.8,261.5,164.9,261.5,168.5z M339.8,82.9c0-1-0.4-1.5-1.1-1.5c-2.1,0-6.2,3.5-12.2,10.6
			c-6,7-12.2,16-18.8,26.9c-6.5,10.9-11.4,20.9-14.5,29.9c11.7-12.3,22.4-25.1,32.1-38.3C335,97.2,339.8,88,339.8,82.9z"/>
	</g>
	<g>
		<path class="st0" d="M320.1,176.2c-5.7,0-8.5-3.1-8.5-9.2c0-8.2,4.4-19.9,13.3-35.2c8.9-15.3,19-29,30.4-41.1
			c11.4-12.1,20.4-18.2,26.9-18.2c2.4,0,3.6,1.7,3.6,5.1c0,5.3-4.4,13.9-13.3,25.9c-8.9,12-18.4,23.2-28.6,33.6
			c-10.2,10.4-18.1,17.6-23.6,21.5c-0.3,2-0.4,3.4-0.4,4.1c0,0.7,0.1,1.5,0.2,2.4c0.1,0.9,0.6,2,1.5,3.4c0.9,1.4,2.4,2.1,4.4,2.1
			s5.8-1.2,11-3.7c5.3-2.5,9.9-4.9,14-7.5l6-3.8c0.1,0.3,0.2,0.8,0.2,1.5s-0.6,1.4-1.7,1.9C338.6,170.5,326.8,176.2,320.1,176.2z
			 M379,82.1c-0.1-2.8-0.9-4.2-2.5-4.2c-3.9,0-9.8,4.4-17.7,13.2c-7.9,8.8-15.6,19.3-23,31.6c-7.4,12.3-12.3,22.8-14.5,31.6
			c5.3-4.3,12.1-10.6,20.4-18.9c8.3-8.3,16.5-17.8,24.5-28.5C374.2,96.3,378.5,88,379,82.1z"/>
		<path class="st0" d="M388.1,150.8c-0.8,0-1.1-0.4-1.1-1.3l0.6-1.3c2.3-2.1,3.4-4,3.4-5.5c0-1.9-1-2.8-3-2.8
			c-4.4,0-10.4,3.1-17.8,9.2c-7.5,6.1-11.2,11.5-11.2,16.3c0,2,1.3,3,4,3c2.6,0,5.7-1.1,9.2-3.3c3.5-2.2,6.4-4.4,8.9-6.6
			c2.5-2.2,3.8-3.3,4.1-3.3c1.3,0.1,1.9,0.8,1.9,1.9c0,0.5-1,2.1-2.9,4.9c-2,2.8-2.9,5-2.9,6.6c0,1.3,1,1.9,3.1,1.9s5.8-1.2,11-3.7
			c5.3-2.5,9.9-4.9,14-7.5l6-3.8c0.1,0.3,0.2,0.8,0.2,1.5s-0.6,1.4-1.7,1.9c-17,11.6-28.8,17.4-35.5,17.4c-3.3,0-4.9-1.6-4.9-4.9
			c0-1.4,0.3-2.8,0.8-4.3c-0.9,1-3.5,2.5-7.8,4.6s-8.2,3.1-11.6,3.1s-5.1-1.6-5.1-4.7c0-7.4,5.2-15,15.5-22.7
			c10.3-7.7,19-11.6,26-11.6c4.2,0,6.2,1.8,6.2,5.3c0,2-1.3,4.2-3.8,6.4C390.8,149.6,389.1,150.8,388.1,150.8z"/>
		<path class="st0" d="M410.5,158.9c2.4-1.4,5.5-3.6,9.4-6.6c9.6-7.5,14.7-11.3,15.3-11.3c1.9,0,2.8,0.8,2.8,2.5
			c0,1.6-1,4.2-2.9,7.5c-2,3.4-4.2,6.9-6.6,10.6c-2.5,3.7-3.9,5.9-4.2,6.6c0.1,0.1,0.4,0.2,0.8,0.2c0.4,0,2.9-1.7,7.5-5
			c4.5-3.3,9.2-6.9,14.2-10.6c4.9-3.7,7.8-5.9,8.7-6.4c0.9-0.6,1.7-0.8,2.5-0.8c1.5,0.1,2.3,1,2.3,2.6c0,0.6-2.1,3.8-6.4,9.5
			c-4.3,5.7-6.4,9.4-6.4,11c0,1.1,1.4,1.7,4.1,1.7c2.7,0,6.7-1.2,12-3.7c5.3-2.5,9.9-4.9,14-7.5l6-3.8c0.1,0.3,0.2,0.8,0.2,1.5
			s-0.6,1.4-1.7,1.9c-17,11.6-28.8,17.4-35.5,17.4c-3.9,0-5.9-1.5-5.9-4.5c0-2.9,0.8-5.7,2.5-8.3c1.7-2.6,3.2-4.9,4.4-6.7
			c1.3-1.8,1.9-2.8,1.9-2.9c-5.8,4.2-12.6,9.1-20.6,14.9c-7.9,5.8-12.4,8.7-13.4,8.7c-0.8,0-1.1-0.9-1.1-2.6s2.5-6.4,7.5-13.8
			c5-7.4,7.5-11.4,7.5-11.9c0-0.5-0.1-0.8-0.4-0.8l-1.9,0.9l-9.4,7.5c-0.6,0.5-1.8,1.3-3.6,2.5c-1.8,1.1-2.9,1.7-3.3,1.7
			s-0.7-0.3-0.7-0.8S410.1,159.1,410.5,158.9z"/>
		<path class="st0" d="M511.7,155.5c-0.9,3.4-1.3,7-1.3,10.9c0,3.9,1.6,5.9,4.9,5.9c0.9,0,2.4-0.5,4.4-1.4c2.1-0.9,3.3-1.4,3.6-1.4
			c0.3,0,0.5,0.1,0.5,0.4c0,1.5-1.3,3.1-4,4.7c-2.6,1.6-5.3,2.5-7.9,2.5c-5.3,0-7.9-3.5-7.9-10.6c0-1.6,0.1-2.9,0.2-3.8
			c-10.1,8.8-17.8,13.2-23.1,13.2c-5.3,0-8-1.8-8-5.5c0-5.4,4.6-12.2,13.9-20.3c9.2-8.1,18-12.7,26.3-13.9
			c7.2-14.7,16-28.5,26.5-41.3c10.5-12.8,18.6-19.3,24.3-19.3c1,0,1.8,0.5,2.5,1.6c0.6,1.1,0.9,2.1,0.9,3.1
			c0,4.2-6.1,14.6-18.4,31.3C536.7,128.4,524.3,143,511.7,155.5z M482,168.9c0,1.9,1.1,2.8,3.2,2.8c3.4,0,10-4.7,19.8-14.2
			c1.6-5.8,3.6-11.1,5.9-16c-6.2,1.5-12.5,5.5-19.1,12.1C485.3,160.1,482,165.2,482,168.9z M560.4,83.2c0-1-0.4-1.5-1.1-1.5
			c-2.1,0-6.2,3.5-12.2,10.6c-6,7-12.2,16-18.8,26.9c-6.5,10.9-11.4,20.9-14.5,29.9c11.7-12.3,22.4-25.1,32.1-38.3
			C555.5,97.5,560.4,88.4,560.4,83.2z"/>
	</g>
	<g>
		<path class="st0" d="M192.8,233.3L192.8,233.3l-3.5,0v-20h11v3.3h-7.5v4.4h7.5v3.5h-7.5v5.3h7.5v3.5H192.8z"/>
		<path class="st0" d="M216.7,233.3l-7.8-20.1h3.8l5.9,15.2l5.7-15.2h3.7l-7.6,20.1H216.7z"/>
		<path class="st0" d="M240.2,233.3L240.2,233.3l-3.5,0v-20h11v3.3h-7.5v4.4h7.5v3.5h-7.5v5.3h7.5v3.5H240.2z"/>
	</g>
	<g>
		<path class="st0" d="M272.7,213.4v20h-3.5v-0.1l-8.8-13.6v13.7h-3.5v-20h3.5h0l8.8,13.5v-13.5H272.7z"/>
		<path class="st0" d="M294.1,213.3v3.4h-5v16.6h-3.5v-16.6h-4.9v-3.4H294.1z"/>
	</g>
	<g>
		<path class="st0" d="M332.1,223.3c0.6,0.6,1,1.2,1.3,1.9c0.3,0.7,0.5,1.5,0.5,2.3c0,0.8-0.2,1.6-0.5,2.3c-0.3,0.7-0.7,1.4-1.3,1.9
			c-0.4,0.4-0.8,0.7-1.3,1c-0.5,0.3-1,0.5-1.5,0.6h-8.1v-20h7.3c1.1,0.3,2,0.8,2.7,1.5c0.6,0.6,1,1.2,1.3,1.9s0.5,1.5,0.5,2.3
			c0,1.4-0.4,2.6-1.3,3.7c0.1,0.1,0.2,0.2,0.2,0.2S332,223.2,332.1,223.3z M324.6,221.5h2.3c0.3,0,0.6-0.1,0.9-0.2
			c0.3-0.1,0.6-0.3,0.8-0.5s0.4-0.5,0.5-0.8c0.1-0.3,0.2-0.6,0.2-1c0-0.3-0.1-0.6-0.2-0.9s-0.3-0.6-0.5-0.8
			c-0.2-0.2-0.5-0.4-0.8-0.5c-0.3-0.1-0.6-0.2-0.9-0.2h-2.3V221.5z M327.8,230c0.7,0,1.3-0.2,1.8-0.7c0.5-0.5,0.7-1.1,0.7-1.8
			s-0.2-1.3-0.7-1.8c-0.5-0.5-1.1-0.7-1.8-0.7h-3.2v5H327.8z"/>
		<path class="st0" d="M346.9,213.3h3.7l7.8,20.1h-3.8L353,229h-8.2l-1.7,4.4h-3.7L346.9,213.3z M346.1,225.5h5.6l-2.8-7.2
			L346.1,225.5z"/>
	</g>
	<g>
		<path class="st0" d="M380.7,213.4v20h-3.5v-0.1l-8.8-13.6v13.7h-3.5v-20h3.5h0l8.8,13.5v-13.5H380.7z"/>
		<path class="st0" d="M394.7,233.4h-5.4v-20h5.4c1.4,0,2.7,0.3,3.9,0.8c1.2,0.5,2.2,1.2,3.2,2.1c0.9,0.9,1.6,2,2.1,3.2
			c0.5,1.3,0.8,2.6,0.8,3.9s-0.3,2.6-0.8,3.9c-0.5,1.2-1.2,2.2-2.1,3.2c-0.9,0.9-2,1.6-3.2,2.1C397.4,233.1,396.1,233.4,394.7,233.4
			z M392.8,229.9h1.9c0.9,0,1.7-0.2,2.5-0.5c0.8-0.3,1.5-0.8,2.1-1.4c0.6-0.6,1.1-1.3,1.4-2.1c0.3-0.8,0.5-1.6,0.5-2.5
			c0-0.9-0.2-1.7-0.5-2.5c-0.3-0.8-0.8-1.5-1.4-2.1c-0.6-0.6-1.3-1.1-2.1-1.4c-0.8-0.3-1.6-0.5-2.5-0.5h-1.9V229.9z"/>
	</g>
	<polygon class="st0" points="74.2,224.6 71.6,232.5 78.4,227.6 85.1,232.5 82.6,224.6 89.3,219.7 81,219.7 78.4,211.8 75.8,219.7 
		67.5,219.7 	"/>
	<polygon class="st0" points="103.1,224.6 100.5,232.5 107.3,227.6 114,232.5 111.4,224.6 118.2,219.7 109.9,219.7 107.3,211.8 
		104.7,219.7 96.4,219.7 	"/>
	<polygon class="st0" points="132,224.6 129.4,232.5 136.2,227.6 142.9,232.5 140.3,224.6 147.1,219.7 138.7,219.7 136.2,211.8 
		133.6,219.7 125.3,219.7 	"/>
	<path class="st0" d="M160.9,224.6l-2.6,7.9l6.8-4.9l6.7,4.9l-2.6-7.9l6.7-4.9h-8.3l-2.6-7.9l-2.6,7.9h-8.3L160.9,224.6z
		 M425.7,224.6l-2.6,7.9l6.8-4.9l6.7,4.9l-2.6-7.9l6.7-4.9h-8.3l-2.6-7.9l-2.6,7.9H419L425.7,224.6z"/>
	<polygon class="st0" points="454.6,224.6 452,232.5 458.8,227.6 465.5,232.5 462.9,224.6 469.7,219.7 461.3,219.7 458.8,211.8 
		456.2,219.7 447.9,219.7 	"/>
	<polygon class="st0" points="483.5,224.6 480.9,232.5 487.7,227.6 494.4,232.5 491.8,224.6 498.5,219.7 490.2,219.7 487.7,211.8 
		485.1,219.7 476.8,219.7 	"/>
	<polygon class="st0" points="512.4,224.6 509.8,232.5 516.6,227.6 523.3,232.5 520.7,224.6 527.4,219.7 519.1,219.7 516.6,211.8 
		514,219.7 505.7,219.7 	"/>
	<path class="st0" d="M415.5,45.2c0,0,21.4,6.4,31.2,7.7c0,0,10.3,1.7,23.1,1c13.8-0.8,29.1,7.6,32.1,12.7c0,0,1,1.9,6,0
		c1-0.4,5.9-4.8,7.7-7.3c0.7-1.2,4.7-6,8.1-6c0,0,15,0,24.8-2.6c0,0,11.6-3,15-5.6c0,0,5.6-3.4,5.6,0c0,3.4-4.7,9.4-11.3,11
		c-0.7,0.1-23.7,3.3-28.5,8.3c0,0-4.3,5.1,3.9,4.7c0,0,5.1-0.4,7.3,2.6c0,0-9,0-14.1,6c0,0-8.6,13.3-24,16.7c0,0-6.6,1.5-13.2,1.1
		c-2.5-0.2-3.6-0.8-4-1.3c-0.5-0.2-0.8-2.8-11.5-0.3c0,0-12.2,1.9-16.6,0.4c-0.6-0.3-1.6-0.5-2.1-0.9c-0.7-0.5-1.7-2.7,1.6-2.9
		c0,0,16.3-1.3,19.3-7.3c0,0,3.8-5.8-5.8-13.8c0,0-6-6.2-20.7-7.2C446.3,62.2,422.4,58.1,415.5,45.2L415.5,45.2z"/>
</g>
</svg>
